<?xml version="1.0" encoding="utf-8"?>
<!-- Generator: Adobe Illustrator 25.2.0, SVG Export Plug-In . SVG Version: 6.00 Build 0)  -->
<svg version="1.1" width="20px" id="Layer_1" xmlns="http://www.w3.org/2000/svg" xmlns:xlink="http://www.w3.org/1999/xlink" x="0px" y="0px"
	 viewBox="0 0 200 54.9" style="enable-background:new 0 0 200 54.9;" xml:space="preserve">
<style type="text/css">
	.st0{fill:#65C3A1;}
	.st1{fill:#C5494A;}
	.st2{fill:none;stroke:#F37879;stroke-miterlimit:10;}
</style>
<g>
	<g>
		<path class="st0" d="M33.2,16.9c-1.5-0.9-3.2-1.4-5.1-1.4c-0.9,0-1.8,0.1-2.8,0.3c-0.9,0.2-1.7,0.6-2.5,1.1
			c-0.8,0.5-1.5,1.1-2.1,1.9c-0.3,0.4-0.6,0.9-0.9,1.5v-4c0-0.2-0.1-0.4-0.2-0.6c-0.2-0.2-0.4-0.3-0.6-0.3c-0.3,0-0.5,0.1-0.6,0.3
			c-0.2,0.2-0.3,0.4-0.3,0.6v28.6c0,0.2,0.1,0.4,0.3,0.6c0.2,0.2,0.4,0.3,0.6,0.3c0.3,0,0.5-0.1,0.6-0.3c0.2-0.2,0.2-0.4,0.2-0.6
			V32.5c0.3,0.6,0.7,1,1.1,1.5c0.6,0.7,1.3,1.4,2.1,1.8c0.7,0.5,1.5,0.9,2.4,1.2s1.8,0.4,2.8,0.4c1.9,0,3.6-0.5,5.1-1.5
			c1.5-0.9,2.7-2.3,3.6-3.9c0.9-1.7,1.3-3.5,1.3-5.6s-0.4-4-1.3-5.6C35.9,19.2,34.7,17.8,33.2,16.9z M35.3,31.3
			c-0.7,1.4-1.7,2.5-3,3.4c-1.2,0.8-2.7,1.2-4.3,1.2c-1.6,0-3.1-0.4-4.3-1.2c-1.2-0.8-2.2-1.9-3-3.4c-0.7-1.4-1.1-3-1.1-4.8
			c0-1.8,0.3-3.4,1.1-4.8c0.7-1.4,1.7-2.5,3-3.3c1.2-0.8,2.7-1.2,4.3-1.2c1.6,0,3.1,0.4,4.3,1.2c1.2,0.8,2.2,1.9,3,3.3
			c0.7,1.4,1.1,3,1.1,4.8S36,29.9,35.3,31.3z"/>
		<path class="st0" d="M61.3,15.7c-0.3,0-0.5,0.1-0.6,0.3c-0.2,0.2-0.2,0.4-0.2,0.6v3.8c-0.5-1.1-1.1-2-1.9-2.8
			c-0.8-0.8-1.8-1.4-2.8-1.9c-1.1-0.4-2.2-0.6-3.5-0.6c-1.9,0-3.6,0.5-5.1,1.5c-1.5,0.9-2.7,2.3-3.6,4c-0.9,1.7-1.3,3.6-1.3,5.8
			c0,2.2,0.4,4.1,1.3,5.8c0.9,1.7,2.1,3.1,3.5,4.1c1.5,1,3.2,1.5,5.2,1.5c1.2,0,2.5-0.2,3.5-0.7c1.1-0.5,2-1.1,2.8-1.9
			s1.4-1.6,1.9-2.6v3.9c0,0.2,0.1,0.4,0.2,0.6c0.2,0.2,0.4,0.3,0.6,0.3c0.2,0,0.4-0.1,0.6-0.3c0.2-0.2,0.3-0.4,0.3-0.6V16.6
			c0-0.2-0.1-0.4-0.3-0.6C61.8,15.8,61.5,15.7,61.3,15.7z M59.5,31.2c-0.7,1.5-1.7,2.6-3,3.5c-1.2,0.9-2.7,1.3-4.3,1.3
			s-3.1-0.4-4.3-1.3c-1.2-0.9-2.2-2-3-3.5c-0.7-1.5-1.1-3.1-1.1-5s0.4-3.5,1.1-4.9c0.7-1.4,1.7-2.6,3-3.4c1.2-0.8,2.7-1.2,4.3-1.2
			c1.6,0,3.1,0.4,4.3,1.3c1.2,0.9,2.2,2,3,3.4c0.7,1.5,1.1,3.1,1.1,4.8C60.6,28.1,60.3,29.8,59.5,31.2z"/>
		<path class="st0" d="M95.7,15.2c-0.2-0.1-0.4-0.2-0.6-0.2c-0.4,0-0.6,0.2-0.8,0.6l-6,18.7l-6.1-14c0-0.2-0.2-0.3-0.3-0.4
			c-0.2-0.1-0.3-0.2-0.5-0.2c-0.4,0-0.7,0.2-0.8,0.6l-5.7,14.1l-6.1-18.8c0-0.2-0.2-0.3-0.3-0.4c-0.1-0.1-0.3-0.2-0.5-0.2
			c-0.3,0-0.5,0.1-0.6,0.2c-0.2,0.1-0.3,0.3-0.3,0.6c0,0.1,0,0.3,0.1,0.4l6.9,20.4c0,0.2,0.2,0.3,0.3,0.4c0.2,0.1,0.3,0.1,0.5,0.1
			c0.4,0,0.7-0.2,0.8-0.6l5.6-14.1l6.2,14.1c0.2,0.4,0.5,0.6,0.8,0.6c0.2,0,0.3,0,0.5-0.1c0.1-0.1,0.3-0.2,0.3-0.4l6.6-20.4
			c0,0,0-0.1,0-0.3c0-0.1,0-0.2,0-0.2C95.9,15.5,95.8,15.3,95.7,15.2z"/>
		<path class="st0" d="M131.9,16.9c-1.5-0.9-3.2-1.4-5.1-1.4c-0.9,0-1.8,0.1-2.8,0.3c-0.9,0.2-1.7,0.6-2.5,1.1
			c-0.8,0.5-1.5,1.1-2.1,1.9c-0.3,0.4-0.6,0.9-0.9,1.5v-4c0-0.2-0.1-0.4-0.2-0.6c-0.2-0.2-0.3-0.3-0.6-0.3c-0.3,0-0.5,0.1-0.6,0.3
			c-0.2,0.2-0.2,0.4-0.2,0.6v28.6c0,0.2,0.1,0.4,0.3,0.6c0.2,0.2,0.4,0.3,0.6,0.3c0.3,0,0.5-0.1,0.6-0.3c0.2-0.2,0.2-0.4,0.2-0.6
			V32.5c0.3,0.6,0.7,1,1.1,1.5c0.6,0.7,1.3,1.4,2.1,1.8c0.7,0.5,1.5,0.9,2.5,1.2c0.9,0.3,1.8,0.4,2.7,0.4c1.9,0,3.6-0.5,5.1-1.5
			c1.5-0.9,2.7-2.3,3.6-3.9c0.9-1.7,1.3-3.5,1.3-5.6s-0.4-4-1.3-5.6C134.6,19.2,133.4,17.8,131.9,16.9z M134,31.3
			c-0.7,1.4-1.7,2.5-3,3.4s-2.7,1.2-4.3,1.2c-1.6,0-3.1-0.4-4.3-1.2c-1.2-0.8-2.2-1.9-2.9-3.4c-0.7-1.4-1.1-3-1.1-4.8
			c0-1.8,0.3-3.4,1.1-4.8c0.7-1.4,1.7-2.5,2.9-3.3c1.2-0.8,2.7-1.2,4.3-1.2c1.6,0,3,0.4,4.3,1.2c1.2,0.8,2.2,1.9,3,3.3
			c0.7,1.4,1.1,3,1.1,4.8S134.7,29.9,134,31.3z"/>
		<path class="st0" d="M160,15.7c-0.3,0-0.5,0.1-0.6,0.3c-0.2,0.2-0.2,0.4-0.2,0.6v3.8c-0.5-1.1-1.1-2-1.9-2.8
			c-0.8-0.8-1.8-1.4-2.9-1.9c-1.1-0.4-2.2-0.6-3.5-0.6c-1.9,0-3.6,0.5-5.1,1.5c-1.5,0.9-2.7,2.3-3.6,4c-0.9,1.7-1.3,3.6-1.3,5.8
			c0,2.2,0.4,4.1,1.3,5.8c0.9,1.7,2.1,3.1,3.5,4.1c1.5,1,3.2,1.5,5.2,1.5c1.2,0,2.5-0.2,3.5-0.7c1.1-0.5,2-1.1,2.8-1.9
			s1.4-1.6,1.9-2.6v3.9c0,0.2,0.1,0.4,0.2,0.6c0.2,0.2,0.3,0.3,0.6,0.3c0.2,0,0.4-0.1,0.6-0.3c0.2-0.2,0.3-0.4,0.3-0.6V16.6
			c0-0.2-0.1-0.4-0.2-0.6C160.5,15.8,160.3,15.7,160,15.7z M158.2,31.2c-0.7,1.5-1.7,2.6-3,3.5c-1.2,0.9-2.7,1.3-4.3,1.3
			c-1.6,0-3.1-0.4-4.3-1.3s-2.2-2-3-3.5s-1.1-3.1-1.1-5s0.4-3.5,1.1-4.9c0.7-1.4,1.7-2.6,3-3.4c1.2-0.8,2.7-1.2,4.3-1.2
			c1.6,0,3.1,0.4,4.3,1.3c1.2,0.9,2.2,2,3,3.4c0.7,1.5,1.1,3.1,1.1,4.8C159.3,28.1,159,29.8,158.2,31.2z"/>
		<path class="st0" d="M168.9,15c-0.2,0-0.4,0.1-0.6,0.3c-0.2,0.2-0.3,0.4-0.3,0.6v20.4c0,0.2,0.1,0.4,0.2,0.6
			c0.2,0.2,0.4,0.3,0.6,0.3c0.2,0,0.4-0.1,0.6-0.3c0.2-0.2,0.3-0.4,0.3-0.6V15.9c0-0.2-0.1-0.4-0.2-0.6
			C169.3,15.1,169.1,15,168.9,15z"/>
		<path class="st0" d="M168.9,9c-0.5,0-0.8,0.1-1.1,0.4c-0.3,0.3-0.4,0.6-0.4,1v0.3c0,0.4,0.1,0.7,0.4,1c0.3,0.3,0.6,0.4,1.1,0.4
			c0.4,0,0.8-0.1,1.1-0.4c0.3-0.3,0.4-0.6,0.4-1v-0.3c0-0.4-0.1-0.7-0.4-1C169.6,9.1,169.3,9,168.9,9z"/>
		<path class="st0" d="M187.9,15.2c-0.5-0.1-0.9-0.2-1.3-0.2c-1.4,0-2.7,0.3-3.7,0.9c-1.1,0.6-2,1.4-2.7,2.4
			c-0.6,0.9-1.2,1.8-1.5,2.8v-4.6c0-0.2-0.1-0.4-0.2-0.6c-0.2-0.2-0.3-0.3-0.6-0.3c-0.2,0-0.4,0.1-0.6,0.3c-0.2,0.2-0.3,0.4-0.3,0.6
			v19.7c0,0.2,0.1,0.4,0.2,0.6c0.2,0.2,0.4,0.3,0.6,0.3c0.2,0,0.4-0.1,0.6-0.3c0.2-0.2,0.3-0.4,0.3-0.6V25.6c0-1,0.2-2,0.6-3.1
			c0.4-1.1,1-2.1,1.7-2.9c0.7-0.9,1.5-1.6,2.5-2.2s1.8-0.8,2.7-0.8c0.5,0,0.8,0,1.1,0.2c0.3,0.1,0.4,0.2,0.6,0.2
			c0.2,0,0.4-0.1,0.6-0.3c0.1-0.2,0.2-0.4,0.2-0.6C188.6,15.6,188.3,15.3,187.9,15.2z"/>
	</g>
	<path class="st1" d="M113.2,24.4c-0.4-2-2-3.6-4-4c-1.5-0.3-2.9,0.1-3.9,0.9c-0.2,0.2-0.5,0.2-0.7,0c-1.1-0.8-2.5-1.2-3.9-0.9
		c-2,0.3-3.6,2-4,4c-0.3,1.6,0.2,3.1,1.2,4.3l5.2,5.8c1,1.1,2.8,1.1,3.8,0l5.1-5.8l0,0C113,27.5,113.5,26,113.2,24.4z"/>
	<path class="st2" d="M100,22c-0.6,0.3-1.1,0.8-1.5,1.4c-0.9,1.5-0.6,3.2,0.4,4.3l5.2,5.8c0.3,0.3,0.7,0.5,1.2,0.4
		c0.3,0,0.6-0.2,0.7-0.5l3.2-3.6l0,0l1.9-2.2c1-1.2,1.2-2.9,0.4-4.3c-0.3-0.6-0.9-1.1-1.5-1.4c-1.5-0.7-3.1-0.5-4.2,0.6l-0.3,0.3
		c-0.3,0.3-0.7,0.3-1,0l-0.3-0.3C103,21.6,101.4,21.3,100,22z"/>
</g>
</svg>
