<?xml version="1.0" encoding="utf-8"?>
<!-- Generator: Adobe Illustrator 25.2.0, SVG Export Plug-In . SVG Version: 6.00 Build 0)  -->
<svg version="1.1" id="Layer_1" xmlns="http://www.w3.org/2000/svg" xmlns:xlink="http://www.w3.org/1999/xlink" x="0px" y="0px"
	 viewBox="0 0 595.3 841.9" style="enable-background:new 0 0 595.3 841.9;" xml:space="preserve">
<style type="text/css">
	.st0{fill:#4F73B9;}
	.st1{fill:#BA5DA4;}
	.st2{fill:#34393E;}
	.st3{fill:none;stroke:#CC76B0;stroke-width:2;stroke-miterlimit:10;}
</style>
<g>
	<path class="st0" d="M130.5,389.8c-3.5-2.2-7.4-3.3-11.9-3.3c-2.2,0-4.3,0.3-6.4,0.8c-2.1,0.5-4,1.4-5.8,2.5
		c-1.8,1.1-3.4,2.6-4.8,4.4c-0.8,1-1.5,2.2-2.2,3.5v-9.2c0-0.5-0.2-1-0.5-1.4c-0.4-0.4-0.9-0.6-1.5-0.6c-0.6,0-1.1,0.2-1.4,0.6
		c-0.4,0.4-0.6,0.9-0.6,1.4V455c0,0.5,0.2,1,0.6,1.4c0.4,0.4,0.9,0.6,1.4,0.6c0.6,0,1.1-0.2,1.5-0.6c0.4-0.4,0.5-0.9,0.5-1.4v-28.9
		c0.7,1.3,1.6,2.4,2.5,3.5c1.4,1.7,3,3.2,4.8,4.3c1.7,1.2,3.6,2.1,5.6,2.7c2,0.6,4.1,1,6.4,1c4.4,0,8.4-1.1,11.9-3.4
		c3.5-2.2,6.3-5.3,8.3-9.1c2-3.9,3.1-8.2,3.1-13.1c0-4.9-1-9.3-3.1-13.1C136.7,395,134,392,130.5,389.8z M135.3,423.2
		c-1.7,3.3-4,5.9-6.9,7.8c-2.9,1.9-6.2,2.8-10,2.8c-3.8,0-7.1-0.9-10-2.8c-2.9-1.9-5.2-4.5-6.9-7.8c-1.7-3.3-2.5-7-2.5-11.2
		c0-4.3,0.8-8,2.5-11.2c1.7-3.2,4-5.8,6.9-7.6c2.9-1.9,6.2-2.8,10-2.8c3.7,0,7.1,0.9,10,2.8c2.9,1.9,5.2,4.4,6.9,7.7
		c1.7,3.3,2.6,7,2.6,11.2S137,419.9,135.3,423.2z"/>
	<path class="st0" d="M195.8,387.1c-0.6,0-1.1,0.2-1.5,0.6c-0.4,0.4-0.5,0.9-0.5,1.4v8.9c-1.1-2.5-2.6-4.7-4.5-6.6
		c-1.9-1.9-4.1-3.3-6.6-4.4c-2.5-1-5.2-1.5-8.1-1.5c-4.4,0-8.4,1.1-11.9,3.4c-3.5,2.2-6.3,5.3-8.3,9.2c-2,3.9-3.1,8.4-3.1,13.5
		c0,5,1,9.5,3,13.5c2,4,4.8,7.2,8.2,9.5c3.5,2.3,7.5,3.5,12,3.5c2.9,0,5.7-0.5,8.2-1.6c2.5-1.1,4.7-2.6,6.6-4.4
		c1.9-1.8,3.3-3.8,4.4-6v9c0,0.5,0.2,1,0.5,1.4c0.4,0.4,0.9,0.6,1.5,0.6c0.5,0,1-0.2,1.4-0.6c0.4-0.4,0.6-0.9,0.6-1.4v-45.9
		c0-0.5-0.2-1-0.6-1.4C196.9,387.3,196.4,387.1,195.8,387.1z M191.7,423.1c-1.7,3.4-4,6.1-6.9,8.1c-2.9,2-6.3,3-10,3
		c-3.7,0-7.1-1-10-3c-2.9-2-5.2-4.7-6.9-8.1c-1.7-3.4-2.5-7.3-2.5-11.6c0-4.3,0.9-8.2,2.6-11.5c1.7-3.3,4-6,6.9-7.9
		c2.9-1.9,6.2-2.9,9.9-2.9c3.7,0,7.1,1,10,3c2.9,2,5.2,4.6,6.9,8c1.7,3.4,2.5,7.1,2.5,11.2C194.2,415.8,193.4,419.7,191.7,423.1z"/>
	<path class="st0" d="M275.7,385.7c-0.4-0.3-0.9-0.5-1.4-0.5c-0.9,0-1.5,0.4-1.8,1.3l-13.9,43.3l-14.1-32.6
		c-0.1-0.4-0.4-0.7-0.8-0.9c-0.4-0.2-0.8-0.4-1.1-0.4c-0.9,0-1.6,0.4-1.9,1.3l-13.3,32.9l-14.1-43.6c-0.1-0.4-0.4-0.7-0.7-1
		c-0.3-0.2-0.7-0.4-1.1-0.4c-0.6,0-1.1,0.2-1.5,0.5c-0.4,0.3-0.6,0.8-0.6,1.4c0,0.3,0.1,0.6,0.2,1l16,47.5c0.1,0.4,0.4,0.7,0.8,1
		c0.4,0.2,0.8,0.3,1.1,0.3c0.9,0,1.6-0.4,1.9-1.3l13-32.7l14.5,32.7c0.5,0.9,1.1,1.3,1.9,1.3c0.4,0,0.8-0.1,1.1-0.3
		c0.3-0.2,0.6-0.5,0.8-1l15.5-47.5c0.1-0.1,0.1-0.3,0.1-0.6c0-0.2,0-0.4,0-0.4C276.3,386.5,276.1,386,275.7,385.7z"/>
	<path class="st0" d="M360,389.8c-3.5-2.2-7.4-3.3-11.9-3.3c-2.2,0-4.3,0.3-6.4,0.8c-2.1,0.5-4,1.4-5.8,2.5
		c-1.8,1.1-3.4,2.6-4.8,4.4c-0.8,1-1.5,2.2-2.2,3.5v-9.2c0-0.5-0.2-1-0.5-1.4c-0.4-0.4-0.8-0.6-1.5-0.6c-0.6,0-1.1,0.2-1.5,0.6
		c-0.4,0.4-0.5,0.9-0.5,1.4V455c0,0.5,0.2,1,0.6,1.4c0.4,0.4,0.9,0.6,1.4,0.6c0.6,0,1.1-0.2,1.5-0.6c0.4-0.4,0.5-0.9,0.5-1.4v-28.9
		c0.7,1.3,1.6,2.4,2.5,3.5c1.4,1.7,3,3.2,4.8,4.3c1.7,1.2,3.6,2.1,5.7,2.7c2,0.6,4.1,1,6.3,1c4.4,0,8.3-1.1,11.8-3.4
		c3.5-2.2,6.3-5.3,8.3-9.1c2-3.9,3-8.2,3-13.1c0-4.9-1-9.3-3-13.1C366.2,395,363.5,392,360,389.8z M364.8,423.2
		c-1.7,3.3-4,5.9-6.9,7.8c-2.9,1.9-6.2,2.8-10,2.8c-3.8,0-7.1-0.9-10-2.8c-2.9-1.9-5.2-4.5-6.8-7.8c-1.7-3.3-2.5-7-2.5-11.2
		c0-4.3,0.8-8,2.5-11.2c1.7-3.2,3.9-5.8,6.8-7.6c2.9-1.9,6.2-2.8,10-2.8c3.7,0,7,0.9,10,2.8c2.9,1.9,5.2,4.4,6.9,7.7
		c1.7,3.3,2.5,7,2.5,11.2S366.5,419.9,364.8,423.2z"/>
	<path class="st0" d="M425.3,387.1c-0.6,0-1.1,0.2-1.5,0.6c-0.4,0.4-0.5,0.9-0.5,1.4v8.9c-1.1-2.5-2.5-4.7-4.5-6.6
		c-1.9-1.9-4.1-3.3-6.7-4.4c-2.5-1-5.2-1.5-8.1-1.5c-4.4,0-8.3,1.1-11.8,3.4c-3.5,2.2-6.3,5.3-8.3,9.2c-2,3.9-3,8.4-3,13.5
		c0,5,1,9.5,3,13.5c2,4,4.8,7.2,8.2,9.5c3.5,2.3,7.5,3.5,12,3.5c2.9,0,5.7-0.5,8.2-1.6c2.5-1.1,4.7-2.6,6.6-4.4
		c1.9-1.8,3.3-3.8,4.4-6v9c0,0.5,0.2,1,0.5,1.4c0.4,0.4,0.8,0.6,1.5,0.6c0.5,0,1-0.2,1.4-0.6c0.4-0.4,0.6-0.9,0.6-1.4v-45.9
		c0-0.5-0.2-1-0.5-1.4C426.4,387.3,425.9,387.1,425.3,387.1z M421.2,423.1c-1.7,3.4-4,6.1-6.9,8.1c-2.9,2-6.3,3-10,3
		c-3.7,0-7.1-1-10-3c-2.9-2-5.2-4.7-6.9-8.1c-1.7-3.4-2.5-7.3-2.5-11.6c0-4.3,0.9-8.2,2.5-11.5c1.7-3.3,4-6,7-7.9
		c2.9-1.9,6.2-2.9,9.9-2.9c3.7,0,7.1,1,10,3c2.9,2,5.2,4.6,6.9,8c1.7,3.4,2.5,7.1,2.5,11.2C423.7,415.8,422.9,419.7,421.2,423.1z"/>
	<path class="st0" d="M445.9,385.5c-0.5,0-1,0.2-1.4,0.6c-0.4,0.4-0.6,0.9-0.6,1.4V435c0,0.5,0.2,1,0.5,1.4c0.4,0.4,0.9,0.6,1.5,0.6
		c0.5,0,1-0.2,1.4-0.6c0.4-0.4,0.6-0.9,0.6-1.4v-47.5c0-0.5-0.2-1-0.5-1.4C447,385.7,446.5,385.5,445.9,385.5z"/>
	<path class="st0" d="M446,371.5c-1.1,0-1.9,0.3-2.6,0.9c-0.7,0.6-1,1.4-1,2.3v0.8c0,0.9,0.3,1.7,1,2.3c0.6,0.6,1.5,0.9,2.5,0.9
		c1,0,1.8-0.3,2.5-0.9c0.6-0.6,1-1.4,1-2.3v-0.8c0-0.9-0.3-1.7-1-2.3C447.7,371.8,447,371.5,446,371.5z"/>
	<path class="st0" d="M490.1,385.9c-1.1-0.3-2.1-0.4-3-0.4c-3.3,0-6.2,0.7-8.7,2.1c-2.5,1.4-4.6,3.3-6.3,5.6c-1.5,2-2.7,4.2-3.6,6.5
		v-10.7c0-0.5-0.2-1-0.5-1.4c-0.4-0.4-0.8-0.6-1.5-0.6c-0.5,0-1,0.2-1.4,0.6c-0.4,0.4-0.6,0.9-0.6,1.4V435c0,0.5,0.2,1,0.5,1.4
		c0.4,0.4,0.9,0.6,1.5,0.6c0.5,0,1-0.2,1.4-0.6c0.4-0.4,0.6-0.9,0.6-1.4v-25c0-2.3,0.5-4.7,1.5-7.2c1-2.5,2.4-4.8,4-6.8
		c1.7-2.1,3.6-3.8,5.7-5.1c2.1-1.3,4.2-1.9,6.3-1.9c1.1,0,1.9,0.1,2.5,0.5c0.6,0.3,1,0.4,1.5,0.4c0.5,0,1-0.2,1.3-0.6
		c0.3-0.4,0.5-0.9,0.5-1.5C491.7,386.8,491.2,386.1,490.1,385.9z"/>
</g>
<path class="st1" d="M316.6,407.1c-0.9-4.6-4.6-8.3-9.2-9.2c-3.4-0.6-6.7,0.3-9.1,2.1c-0.5,0.4-1.2,0.4-1.7,0
	c-2.5-1.8-5.7-2.7-9.1-2.1c-4.6,0.8-8.3,4.6-9.2,9.2c-0.7,3.8,0.4,7.3,2.7,9.9l12.2,13.6c2.4,2.6,6.5,2.6,8.9-0.1l11.8-13.5h0
	C316.1,414.4,317.3,410.9,316.6,407.1z"/>
<polygon class="st2" points="-60.5,413 -66.5,413 -66.5,407 -68.9,407 -68.9,413 -74.9,413 -74.9,415.3 -68.9,415.3 -68.9,421.3 
	-66.5,421.3 -66.5,415.3 -60.5,415.3 "/>
<path class="st3" d="M285.7,401.7c-1.4,0.7-2.6,1.8-3.4,3.2c-2,3.4-1.5,7.4,0.9,10.1l12.2,13.6c0.7,0.8,1.7,1.1,2.8,0.9
	c0.7-0.1,1.3-0.5,1.7-1.1l7.4-8.4h0l4.4-5c2.4-2.7,2.9-6.7,0.9-10.1c-0.8-1.4-2-2.5-3.4-3.2c-3.4-1.7-7.1-1.1-9.7,1.3l-0.8,0.8
	c-0.7,0.6-1.7,0.6-2.3,0l-0.8-0.8C292.8,400.6,289,400,285.7,401.7z"/>
</svg>
